<?xml version="1.0" encoding="utf-8"?>
<svg xmlns="http://www.w3.org/2000/svg" viewBox="0 0 500 500" xmlns:bx="https://boxy-svg.com" width="500px" height="500px">
    <defs>
        <bx:export>
            <bx:file format="svg"/>
        </bx:export>
    </defs>
    <path style="fill: rgb(125, 94, 77); paint-order: fill; stroke: rgb(68, 41, 0); stroke-width: 4px;" d="M 183.637 199.882 C 156.742 126.124 276.941 90.292 273.25 81.271 C 266.93 72.613 162.763 131.174 150.411 160.588 C 134.135 153.834 92.818 75.397 92.818 75.397 C 92.818 75.397 77.71 51.919 75.796 77.92 C 75.88 88.045 88.438 119.026 107.015 159.343 C 159.943 274.209 250.066 453.808 263.057 464.855 C 263.057 464.855 316.358 490.689 313.368 427.96 C 211.428 261.694 313.488 427.96 183.637 199.882 Z"/>
    <path style="fill: none; stroke: rgb(0, 0, 0);" d=""/>
    <path style="fill: none; stroke: rgb(68, 41, 0); stroke-width: 4px;" d="M 264.034 464.891 C 247.609 429.887 281.854 400.128 312.626 428.531"/>
    <path style="fill: none; stroke: rgb(0, 0, 0);" d=""/><path style="fill: none; stroke-width: 2px; stroke: rgb(73, 52, 21);" d="M 272.133 454.402 C 269.063 447.07 268.598 438.107 280.838 431.771 C 292.052 425.966 300.978 429.896 304.337 438.155 C 306.116 442.528 301.647 453.779 292.151 459.334 C 287.666 461.958 275.648 462.797 272.133 454.402 Z"/>
    <path style="fill: none; stroke-width: 2px; stroke: rgb(73, 52, 21);" d="M 281.197 450.376 C 279.895 447.001 279.697 442.875 284.888 439.96 C 289.643 437.288 293.428 439.097 294.852 442.898 C 295.606 444.91 293.711 450.089 289.685 452.645 C 287.783 453.853 282.687 454.239 281.197 450.376 Z"/>
    <path style="fill: none; stroke-width: 3px; stroke: rgb(73, 52, 21); stroke-linecap: round;" d="M 135.064 182.644 C 135.064 182.644 159.222 225.34 175.501 255.536 C 191.78 285.732 207.757 327.682 217.652 348.2 C 233.233 380.507 250.301 413.941 250.301 413.941"/>
    <path style="stroke: rgb(0, 118, 14); stroke-width: 4px; fill: rgb(69, 153, 79);" d="M 247.032 94.18 C 247.032 94.18 281.481 -6.647 372.064 27.436 C 372.064 101.991 247.351 95.6 247.032 94.18 Z"/>
    <path style="fill: none; stroke-width: 3px; stroke-linecap: round; stroke: rgb(0, 118, 14);" d="M 272.908 78.015 C 272.884 78.033 322.874 39.31 356.931 35.442"/>
</svg>